{"title":"Maze.Runner-The.Scorch.Trials.2015.HD-TS.XVID.AC3.HQ.Hive-CM8","uid":12479056,"size":1946160605,"categoryP":"video","categoryS":"movies","magnet":"?xt=urn:btih:4dddbbfa902bf18aa29c86420b1631cb6d5b3553&amp;dn=Maze.Runner-The.Scorch.Trials.2015.HD-TS.XVID.AC3.HQ.Hive-CM8&amp;tr=udp%3A%2F%2Ftracker.openbittorrent.com%3A80&amp;tr=udp%3A%2F%2Fopen.demonii.com%3A1337&amp;tr=udp%3A%2F%2Ftracker.coppersurfer.tk%3A6969&amp;tr=udp%3A%2F%2Fexodus.desync.com%3A6969","seeders":0,"leechers":1,"uploader":"TvTeam","files":4,"time":1443019406,"description":"------------------------------------------------------------------------\n\n &lt;a href=&quot; https://www.torrenting.com&quot; rel=&quot;nofollow&quot; target=&quot;_NEW&quot;&gt; https://www.torrenting.com&lt;/a&gt;\n\nSign up is OPEN - for time being. Come and have fun.\n\n------------------------------------------------------------------------[center][img]http://img910.imageshack.us/img910/9963/5WcWHr.jpg[/img]\n\n \n[color=blue][size=4][b]Maze.Runner-The.Scorch.Trials.2015.HD-TS.XVID.AC3.HQ.Hive-CM8[/b][/size][/color]\n\nThx Hive\n\nCM8 Doing It Right The First Time\n\nSources:\n\nVideo: 720p Private SourceCam thx xoxo\n\nAudio: Sweet Direct Line Big Thx to S4NDM4N \nthx\n\nNotes:\n\nfirst off this is not the russian or the latin source thats on the net for days, this one is good and new\nthe old source is dark,pixelated and had low bitrate and was done from either a 400 or 800mb file, no wonder it wasnt good.\ni have worked on that old source too for days to tidy it up, pity though spent so much hours on it and now its wasted, anyhow\n\nluckily the new one i got today beats it by far. its brighter,sharper,colours are nicer and its not zoomed in, so left and right side is a lot more to see.\nthe whole video itself is great.\n\nEncode:\n\nFixed perspective,rgb and removed some flicker and noise in the video and added some brightness and sharpness\n\nAudio was very nice line lipsynced to my video\n\nRating i would say is Video 8.5 and Audio a def 10\n\ngot very nice and will do me till retail\nenjoy\n\nVideo: 720x400 @bitrate 1800 2pass\nAudio: English Direct Line AC3 2.0 Stereo\nSample: yes included\n\n\n &lt;a href=&quot;\nhttp://www.imdb.com/title/tt4046784/&quot; rel=&quot;nofollow&quot; target=&quot;_NEW&quot;&gt;\nhttp://www.imdb.com/title/tt4046784/&lt;/a&gt;\n\n\nGeneral\nComplete name                  : Maze.Runner-The.Scorch.Trials.2015.HD-TS.XVID.AC3.HQ.Hive-CM8.avi\nFormat                         : AVI\nFormat/Info                    : Audio Video Interleave\nFile size                      : 1.79 GiB\nDuration                       : 2h 3mn\nOverall bit rate               : 2 068 Kbps\nWriting application            : Nandub v1.0rc2\nWriting library                : Nandub build 1853/release\n\nVideo\nID                             : 0\nFormat                         : MPEG-4 Visual\nFormat profile                 : Advanced Simple@L5\nFormat settings, BVOP          : 2\nFormat settings, QPel          : Yes\nFormat settings, GMC           : No warppoints\nFormat settings, Matrix        : Default (H.263)\nMuxing mode                    : Packed bitstream\nCodec ID                       : XVID\nCodec ID/Hint                  : XviD\nDuration                       : 2h 3mn\nBit rate                       : 1 800 Kbps\nWidth                          : 720 pixels\nHeight                         : 400 pixels\nDisplay aspect ratio           : 16:9\nFrame rate                     : 29.970 fps\nColor space                    : YUV\nChroma subsampling             : 4:2:0\nBit depth                      : 8 bits\nScan type                      : Progressive\nCompression mode               : Lossy\nBits/(Pixel*Frame)             : 0.209\nStream size                    : 1.56 GiB (87%)\nWriting library                : XviD 1.2.1 (UTC 2008-12-04)\n\nAudio\nID                             : 1\nFormat                         : AC-3\nFormat/Info                    : Audio Coding 3\nMode extension                 : CM (complete main)\nFormat settings, Endianness    : Big\nCodec ID                       : 2000\nDuration                       : 2h 3mn\nBit rate mode                  : Constant\nBit rate                       : 256 Kbps\nChannel(s)                     : 2 channels\nChannel positions              : Front: L R\nSampling rate                  : 48.0 KHz\nBit depth                      : 16 bits\nCompression mode               : Lossy\nStream size                    : 227 MiB (12%)\nAlignment                      : Split accross interleaves\nInterleave, duration           : 33 ms (1.00 video frame)\nInterleave, preload duration   : 500 ms\n\n\n\nScreens \n\n[img]http://img673.imageshack.us/img673/7196/q11tyy.png[/img]\n[img]http://img538.imageshack.us/img538/305/OX26Fo.png[/img]\n[img]http://img537.imageshack.us/img537/7028/zH6xop.png[/img]\n[img]http://img661.imageshack.us/img661/5462/ZA4tmS.png[/img]\n[img]http://img538.imageshack.us/img538/2876/ucfZFe.png[/img]\n[img]http://img537.imageshack.us/img537/5002/SsUdCi.png[/img]\n[img]http://img538.imageshack.us/img538/7096/o1Y5PV.png[/img]\n[img]http://img538.imageshack.us/img538/1475/R1Hgbx.png[/img]\n[img]http://img537.imageshack.us/img537/1650/CqXF0x.png[/img]\n\nTransported to a remote fortified outpost, Thomas and his fellow teenage Gladers find themselves in trouble \nafter uncovering a diabolical plot from the mysterious and powerful organization WCKD. With help from a new ally, \nthe Gladers stage a daring escape into the Scorch, a desolate landscape filled with dangerous obstacles and crawling \nwith the virus-infected Cranks. The Gladers only hope may be to find the Right Hand, a group of resistance fighters \nwho can help them battle WCKD.\n\nCast\n\nDylan O'Brien \t... \tThomas\nKi Hong Lee \t... \tMinho\nKaya Scodelario ... \tTeresa\nDexter Darden \t... \tFrypan \n\n\n\n[url]https://vid.me/7LPp[/url] :lol:\n\nGreetz\n\nSugarB,iNCOMiNG,Izzy,MenaceIISociety,jiinx,SiMPLE,CherryBomb\nranbailey,ViSiON,YanKeeS,COPYxRIGHT,THC,VAiN,ACAB,DRs\nLKRG,Kingstoner,ACAB,SiMPLE,TiTAN\nUnevano,BigVik,Rapeseed,SAFC,goldadvance,KaN1vE,Pinnz,Wayne,HiGH\nSeeN,jtr,Limey,ICONiK,TED,smittyman,rkofan,mrtoke09 (ya whinging old man here ya go lol )\nMr Hive\n\na special thanks to the office , toddy and megs for letting ted be shit faced and not kick him out haha\n\n\nLOOKING FOR ANYTHING YOU WANT TO LOOK AND SOUND BETTER\n\nCOME FIND US WE DONT BITE \n&lt;a class=&quot;__cf_email__&quot; href=&quot;/cdn-cgi/l/email-protection&quot; data-cfemail=&quot;6427295c240c11170c09050d084a0901&quot;&gt;[email&amp;#160;protected]&lt;/a&gt;&lt;script data-cfhash='f9e31' type=&quot;text/javascript&quot;&gt;\n/* &lt;![CDATA[ */!function(){try{var t=&quot;currentScript&quot;in document?document.currentScript:function(){for(var t=document.getElementsByTagName(&quot;script&quot;),e=t.length;e--;)if(t[e].getAttribute(&quot;data-cfhash&quot;))return t[e]}();if(t&amp;&amp;t.previousSibling){var e,r,n,i,c=t.previousSibling,a=c.getAttribute(&quot;data-cfemail&quot;);if(a){for(e=&quot;&quot;,r=parseInt(a.substr(0,2),16),n=2;a.length-n;n+=2)i=parseInt(a.substr(n,2),16)^r,e+=String.fromCharCode(i);e=document.createTextNode(e),c.parentNode.replaceChild(e,c)}t.parentNode.removeChild(t);}}catch(u){}}()/* ]]&gt; */&lt;/script&gt;[/center]","torrent":{"xt":"urn:btih:4dddbbfa902bf18aa29c86420b1631cb6d5b3553","amp;dn":"Maze.Runner-The.Scorch.Trials.2015.HD-TS.XVID.AC3.HQ.Hive-CM8","amp;tr":["udp%3A%2F%2Ftracker.openbittorrent.com%3A80","udp%3A%2F%2Fopen.demonii.com%3A1337","udp%3A%2F%2Ftracker.coppersurfer.tk%3A6969","udp%3A%2F%2Fexodus.desync.com%3A6969"],"infoHash":"4dddbbfa902bf18aa29c86420b1631cb6d5b3553","infoHashBuffer":{"type":"Buffer","data":[77,221,187,250,144,43,241,138,162,156,134,66,11,22,49,203,109,91,53,83]},"announce":[],"urlList":[]}}